<svg width="22" height="22" viewBox="0 0 22 22" fill="none" xmlns="http://www.w3.org/2000/svg">
<path d="M11 0.4375C5.176 0.4375 0.4375 5.176 0.4375 11C0.4375 16.824 5.176 21.5625 11 21.5625C16.824 21.5625 21.5625 16.824 21.5625 11C21.5625 5.176 16.824 0.4375 11 0.4375ZM11 2.0625C15.9457 2.0625 19.9375 6.05431 19.9375 11C19.9375 15.9457 15.9457 19.9375 11 19.9375C6.05431 19.9375 2.0625 15.9457 2.0625 11C2.0625 6.05431 6.05431 2.0625 11 2.0625ZM10.1875 6.125V7.75H11.8125V6.125H10.1875ZM10.1875 9.375V15.875H11.8125V9.375H10.1875Z" fill="currentColor"/>
</svg>
