<svg width="21" height="22" viewBox="0 0 21 22" fill="none" xmlns="http://www.w3.org/2000/svg">
<path fill-rule="evenodd" clip-rule="evenodd" d="M4.48002 0.902973C4.45721 0.789467 4.39572 0.687393 4.30604 0.61417C4.21637 0.540947 4.10406 0.501113 3.98828 0.501467C3.87251 0.501821 3.76045 0.542341 3.67122 0.616111C3.58199 0.689881 3.52113 0.79233 3.49902 0.905973V0.907973L3.49602 0.917973C3.48302 0.985406 3.46801 1.05244 3.45102 1.11897C3.4072 1.29829 3.35616 1.47577 3.29802 1.65097C3.15302 2.08497 2.95602 2.51097 2.73002 2.73897C2.50402 2.96597 2.08002 3.16597 1.64602 3.31397C1.40595 3.39512 1.16158 3.46289 0.914016 3.51697L0.904016 3.51897C0.789931 3.54116 0.687137 3.60239 0.613305 3.69215C0.539473 3.7819 0.499215 3.89458 0.499452 4.0108C0.499688 4.12702 0.540405 4.23953 0.614602 4.32898C0.688799 4.41844 0.791841 4.47925 0.906016 4.50097H0.908016L0.918016 4.50397C0.985449 4.51697 1.05248 4.53197 1.11902 4.54897C1.25602 4.58297 1.44502 4.63297 1.65102 4.70197C2.08502 4.84697 2.51102 5.04397 2.73902 5.26997C2.96602 5.49597 3.16602 5.91997 3.31402 6.35397C3.39516 6.59403 3.46293 6.83841 3.51702 7.08597L3.51902 7.09597C3.5412 7.21006 3.60243 7.31285 3.69219 7.38668C3.78195 7.46052 3.89462 7.50077 4.01084 7.50054C4.12706 7.5003 4.23957 7.45958 4.32903 7.38539C4.41848 7.31119 4.4793 7.20815 4.50102 7.09397V7.09197L4.50402 7.08197C4.51701 7.01454 4.53202 6.94751 4.54902 6.88097C4.58302 6.74397 4.63302 6.55497 4.70202 6.34897C4.84702 5.91497 5.04402 5.48897 5.27002 5.26097C5.49602 5.03397 5.92002 4.83397 6.35402 4.68597C6.59408 4.60483 6.83845 4.53706 7.08602 4.48297L7.09602 4.48097C7.2101 4.45879 7.31289 4.39756 7.38673 4.3078C7.46056 4.21804 7.50082 4.10537 7.50058 3.98915C7.50034 3.87293 7.45963 3.76042 7.38543 3.67096C7.31123 3.58151 7.20819 3.52069 7.09402 3.49897H7.09202L7.08202 3.49597C7.01458 3.48298 6.94755 3.46797 6.88102 3.45097C6.70169 3.40716 6.52422 3.35612 6.34902 3.29797C5.91502 3.15297 5.48902 2.95597 5.26102 2.72997C5.03402 2.50397 4.83402 2.07997 4.68602 1.64597C4.60487 1.40591 4.5371 1.16154 4.48302 0.913973L4.48102 0.903973L4.48002 0.902973ZM5.39602 3.99497C5.09302 3.85297 4.78902 3.66997 4.55602 3.43897C4.32402 3.20897 4.14002 2.90597 3.99602 2.60397C3.85302 2.90697 3.67002 3.21097 3.43902 3.44397C3.20902 3.67597 2.90602 3.85997 2.60402 4.00397C2.90702 4.14697 3.21102 4.32997 3.44402 4.56097C3.67602 4.79097 3.86002 5.09397 4.00402 5.39597C4.14702 5.09297 4.33002 4.78897 4.56102 4.55597C4.79102 4.32397 5.09402 4.13897 5.39602 3.99497ZM18 2.24997C18.1989 2.24997 18.3897 2.32899 18.5303 2.46964C18.671 2.6103 18.75 2.80106 18.75 2.99997V3.24997H19C19.1989 3.24997 19.3897 3.32899 19.5303 3.46964C19.671 3.6103 19.75 3.80106 19.75 3.99997C19.75 4.19889 19.671 4.38965 19.5303 4.5303C19.3897 4.67096 19.1989 4.74997 19 4.74997H18.75V4.99997C18.75 5.19888 18.671 5.38965 18.5303 5.5303C18.3897 5.67096 18.1989 5.74997 18 5.74997C17.8011 5.74997 17.6103 5.67096 17.4697 5.5303C17.329 5.38965 17.25 5.19888 17.25 4.99997V4.74997H17C16.8011 4.74997 16.6103 4.67096 16.4697 4.5303C16.329 4.38965 16.25 4.19889 16.25 3.99997C16.25 3.80106 16.329 3.6103 16.4697 3.46964C16.6103 3.32899 16.8011 3.24997 17 3.24997H17.25V2.99997C17.25 2.80106 17.329 2.6103 17.4697 2.46964C17.6103 2.32899 17.8011 2.24997 18 2.24997ZM10.988 5.17997C10.659 5.60997 10.286 6.27497 9.73501 7.26197L9.45702 7.76197L9.40302 7.85797C9.15302 8.31097 8.92501 8.71997 8.55801 8.99797C8.18601 9.28097 7.73402 9.38197 7.24402 9.49197L7.14002 9.51497L6.60002 9.63797C5.52802 9.87997 4.81302 10.044 4.32502 10.236C3.85202 10.423 3.78902 10.561 3.76502 10.638C3.73802 10.724 3.71702 10.89 4.00002 11.341C4.29002 11.8 4.78002 12.376 5.50802 13.228L5.87702 13.659L5.94502 13.739C6.28302 14.132 6.58302 14.483 6.72202 14.927C6.85902 15.369 6.81302 15.831 6.76202 16.357L6.75202 16.463L6.69502 17.039C6.58502 18.174 6.51302 18.945 6.53702 19.496C6.56202 20.046 6.67702 20.158 6.73002 20.199C6.77102 20.23 6.88202 20.311 7.37402 20.169C7.87602 20.026 8.54801 19.719 9.55101 19.257L10.057 19.024L10.157 18.978C10.612 18.768 11.036 18.571 11.5 18.571C11.964 18.571 12.388 18.767 12.844 18.978L12.943 19.024L13.449 19.257C14.452 19.719 15.124 20.026 15.626 20.17C16.118 20.31 16.229 20.23 16.27 20.199C16.323 20.159 16.438 20.047 16.463 19.496C16.487 18.945 16.415 18.174 16.304 17.039L16.249 16.463C16.2457 16.4273 16.2424 16.3916 16.239 16.356C16.187 15.831 16.141 15.369 16.279 14.927C16.417 14.483 16.717 14.132 17.055 13.739L17.123 13.659L17.492 13.228C18.221 12.376 18.711 11.8 19 11.341C19.284 10.89 19.262 10.724 19.235 10.638C19.211 10.561 19.148 10.423 18.675 10.236C18.187 10.044 17.472 9.87997 16.401 9.63797L15.86 9.51497L15.756 9.49197C15.266 9.38197 14.814 9.28097 14.442 8.99897C14.075 8.71897 13.848 8.31097 13.597 7.85897L13.543 7.76197L13.265 7.26197C12.715 6.27497 12.341 5.60897 12.012 5.17997C11.684 4.75197 11.542 4.74997 11.5 4.74997C11.457 4.74997 11.316 4.75197 10.988 5.17997ZM9.79702 4.26797C10.208 3.73097 10.737 3.24997 11.5 3.24997C12.262 3.24997 12.792 3.73097 13.203 4.26797C13.607 4.79497 14.033 5.55797 14.545 6.47797L14.853 7.03197C15.192 7.63897 15.265 7.73997 15.349 7.80397C15.429 7.86397 15.532 7.90397 16.191 8.05197L16.794 8.18897C17.786 8.41297 18.617 8.60097 19.224 8.84097C19.859 9.09097 20.443 9.47097 20.667 10.193C20.89 10.907 20.636 11.557 20.269 12.14C19.914 12.703 19.351 13.363 18.672 14.156L18.263 14.634C17.818 15.155 17.745 15.261 17.711 15.373C17.675 15.487 17.674 15.624 17.741 16.319L17.803 16.954C17.906 18.014 17.991 18.892 17.961 19.564C17.931 20.248 17.774 20.94 17.177 21.394C16.567 21.857 15.862 21.798 15.213 21.612C14.586 21.432 13.809 21.074 12.88 20.647L12.316 20.387C11.696 20.102 11.592 20.071 11.5 20.071C11.408 20.071 11.304 20.101 10.684 20.387L10.12 20.647C9.19001 21.074 8.41402 21.432 7.78702 21.612C7.13802 21.798 6.43302 21.857 5.82302 21.394C5.22602 20.94 5.06902 20.248 5.03902 19.564C5.00902 18.892 5.09402 18.014 5.19702 16.954L5.25802 16.319C5.32602 15.624 5.32502 15.488 5.28902 15.373C5.25502 15.261 5.18202 15.155 4.73702 14.634L4.32802 14.156C3.65002 13.363 3.08602 12.703 2.73102 12.14C2.36402 11.557 2.11102 10.907 2.33302 10.193C2.55702 9.46997 3.14102 9.09097 3.77502 8.84097C4.38302 8.60097 5.21402 8.41297 6.20602 8.18897L6.80902 8.05197C7.46802 7.90297 7.57202 7.86397 7.65102 7.80397C7.73502 7.73997 7.80802 7.63897 8.14702 7.03197L8.45502 6.47797C8.96802 5.55797 9.39301 4.79497 9.79702 4.26797Z" fill="currentColor"/>
</svg>
