<svg width="22" height="22" viewBox="0 0 22 22" fill="none" xmlns="http://www.w3.org/2000/svg">
<path d="M10.235 1.37377C9.86698 1.52577 9.53798 1.85577 8.87898 2.51377C8.21998 3.17377 7.88998 3.50277 7.73898 3.86977C7.63843 4.11246 7.58668 4.37258 7.58668 4.63527C7.58668 4.89796 7.63843 5.15808 7.73898 5.40077C7.88998 5.76877 8.21898 6.09777 8.87898 6.75677C9.53698 7.41577 9.86698 7.74577 10.235 7.89677C10.7248 8.09955 11.2751 8.09955 11.765 7.89677C12.133 7.74577 12.462 7.41677 13.121 6.75677C13.781 6.09777 14.109 5.76877 14.261 5.40077C14.4638 4.91093 14.4638 4.36061 14.261 3.87077C14.109 3.50277 13.781 3.17377 13.121 2.51477C12.462 1.85477 12.133 1.52577 11.765 1.37377C11.2751 1.17098 10.7248 1.17098 10.235 1.37377ZM3.86998 7.73777C3.50298 7.88977 3.17298 8.21877 2.51498 8.87777C1.85498 9.53777 1.52598 9.86677 1.37398 10.2338C1.27343 10.4765 1.22168 10.7366 1.22168 10.9993C1.22168 11.262 1.27343 11.5221 1.37398 11.7648C1.52598 12.1328 1.85598 12.4618 2.51398 13.1208C3.17398 13.7798 3.50298 14.1088 3.86998 14.2608C4.11266 14.3613 4.37278 14.4131 4.63548 14.4131C4.89817 14.4131 5.15829 14.3613 5.40098 14.2608C5.76898 14.1088 6.09798 13.7798 6.75698 13.1208C7.41698 12.4618 7.74498 12.1328 7.89698 11.7648C8.09976 11.2749 8.09976 10.7246 7.89698 10.2348C7.74498 9.86677 7.41698 9.53677 6.75698 8.87777C6.09798 8.21877 5.76898 7.88977 5.40098 7.73777C4.91113 7.53498 4.35982 7.53498 3.86998 7.73777ZM15.243 8.87777C14.584 9.53777 14.255 9.86677 14.103 10.2338C14.0024 10.4765 13.9507 10.7366 13.9507 10.9993C13.9507 11.262 14.0024 11.5221 14.103 11.7648C14.255 12.1328 14.584 12.4618 15.243 13.1208C15.902 13.7798 16.232 14.1088 16.599 14.2608C17.0888 14.4636 17.6391 14.4636 18.129 14.2608C18.497 14.1088 18.827 13.7798 19.486 13.1208C20.145 12.4618 20.473 12.1328 20.626 11.7648C20.8288 11.2749 20.8288 10.7246 20.626 10.2348C20.473 9.86677 20.145 9.53677 19.486 8.87777C18.826 8.21877 18.497 7.88977 18.13 7.73777C17.8873 7.63722 17.6272 7.58547 17.3645 7.58547C17.1018 7.58547 16.8417 7.63722 16.599 7.73777C16.232 7.88977 15.902 8.21877 15.243 8.87777ZM10.235 14.1018C9.86698 14.2538 9.53798 14.5838 8.87898 15.2418C8.21998 15.9018 7.88998 16.2308 7.73898 16.5988C7.53619 17.0886 7.53619 17.6389 7.73898 18.1288C7.88998 18.4968 8.21898 18.8258 8.87898 19.4848C9.53698 20.1438 9.86698 20.4738 10.235 20.6248C10.7248 20.8276 11.2751 20.8276 11.765 20.6248C12.133 20.4738 12.462 20.1448 13.121 19.4848C13.781 18.8258 14.109 18.4968 14.261 18.1288C14.464 17.6388 14.464 17.0888 14.261 16.5988C14.109 16.2308 13.781 15.9008 13.121 15.2428C12.462 14.5828 12.133 14.2538 11.765 14.1018C11.2751 13.899 10.7248 13.899 10.235 14.1018Z" stroke="currentColor" stroke-width="2" stroke-linecap="round" stroke-linejoin="round"/>
</svg>
