<svg width="22" height="22" viewBox="0 0 22 22" fill="none" xmlns="http://www.w3.org/2000/svg">
<path d="M11 14C12.6569 14 14 12.6569 14 11C14 9.34315 12.6569 8 11 8C9.34315 8 8 9.34315 8 11C8 12.6569 9.34315 14 11 14Z" stroke="currentColor" stroke-width="1.5"/>
<path d="M3.92899 18.0712C7.83399 21.9762 14.166 21.9762 18.071 18.0712C21.976 14.1662 21.976 7.83424 18.071 3.92924C14.166 0.0242383 7.83399 0.0242383 3.92899 3.92924C0.0239942 7.83424 0.0239942 14.1662 3.92899 18.0712Z" stroke="currentColor" stroke-width="1.5" stroke-linecap="round"/>
<path d="M6.40399 15.5973C5.80032 14.9937 5.32145 14.2771 4.99474 13.4884C4.66803 12.6998 4.49988 11.8545 4.49988 11.0008C4.49988 10.1471 4.66803 9.30183 4.99474 8.51315C5.32145 7.72448 5.80032 7.00789 6.40399 6.4043M15.596 6.4043C16.1997 7.00789 16.6785 7.72448 17.0052 8.51315C17.3319 9.30183 17.5001 10.1471 17.5001 11.0008C17.5001 11.8545 17.3319 12.6998 17.0052 13.4884C16.6785 14.2771 16.1997 14.9937 15.596 15.5973" stroke="currentColor" stroke-width="1.5" stroke-linecap="round"/>
</svg>
