<svg width="26" height="16" viewBox="0 0 26 16" fill="none" xmlns="http://www.w3.org/2000/svg">
<path d="M13.81 15.6221L25.691 2.0445C25.8894 1.81795 26 1.51697 26 1.20397C26 0.890976 25.8894 0.589992 25.691 0.363442L25.6776 0.348823C25.5814 0.238616 25.4657 0.150861 25.3374 0.0908937C25.2091 0.0309266 25.071 1.82613e-06 24.9314 1.81393e-06C24.7918 1.80172e-06 24.6536 0.0309266 24.5254 0.0908936C24.3971 0.150861 24.2813 0.238616 24.1852 0.348822L12.9978 13.1346L1.81481 0.34882C1.71866 0.238614 1.60293 0.150859 1.47465 0.0908916C1.34636 0.0309245 1.20822 -2.60018e-07 1.06861 -2.72222e-07C0.929012 -2.84427e-07 0.790866 0.0309245 0.662586 0.0908915C0.534303 0.150859 0.418565 0.238614 0.322414 0.34882L0.308988 0.36344C0.110647 0.589989 1.32087e-06 0.890974 1.29351e-06 1.20397C1.26615e-06 1.51697 0.110647 1.81795 0.308988 2.0445L12.19 15.6221C12.2945 15.7415 12.4202 15.8366 12.5594 15.9016C12.6986 15.9665 12.8485 16 13 16C13.1515 16 13.3014 15.9665 13.4406 15.9016C13.5798 15.8366 13.7055 15.7415 13.81 15.6221Z" fill="black"/>
</svg>
