<svg width="81" height="81" viewBox="0 0 81 81" fill="none" xmlns="http://www.w3.org/2000/svg">
<path d="M24.3 16.1999C22.1518 16.1999 20.0915 17.0533 18.5725 18.5723C17.0534 20.0914 16.2 22.1516 16.2 24.2999V56.6999C16.2 58.8482 17.0534 60.9084 18.5725 62.4275C20.0915 63.9465 22.1518 64.7999 24.3 64.7999H56.7C58.8483 64.7999 60.9085 63.9465 62.4276 62.4275C63.9466 60.9084 64.8 58.8482 64.8 56.6999V46.5749C64.8 46.0378 65.0134 45.5228 65.3931 45.143C65.7729 44.7632 66.288 44.5499 66.825 44.5499C67.3621 44.5499 67.8772 44.7632 68.2569 45.143C68.6367 45.5228 68.85 46.0378 68.85 46.5749V56.6999C68.85 59.9223 67.5699 63.0127 65.2914 65.2912C63.0128 67.5698 59.9224 68.8499 56.7 68.8499H24.3C21.0776 68.8499 17.9872 67.5698 15.7087 65.2912C13.4301 63.0127 12.15 59.9223 12.15 56.6999V24.2999C12.15 21.0775 13.4301 17.9871 15.7087 15.7086C17.9872 13.43 21.0776 12.1499 24.3 12.1499H34.425C34.9621 12.1499 35.4772 12.3633 35.8569 12.743C36.2367 13.1228 36.45 13.6378 36.45 14.1749C36.45 14.712 36.2367 15.227 35.8569 15.6068C35.4772 15.9866 34.9621 16.1999 34.425 16.1999H24.3ZM44.55 14.1749C44.55 13.6378 44.7634 13.1228 45.1431 12.743C45.5229 12.3633 46.038 12.1499 46.575 12.1499H66.825C67.3621 12.1499 67.8772 12.3633 68.2569 12.743C68.6367 13.1228 68.85 13.6378 68.85 14.1749V34.4249C68.85 34.962 68.6367 35.477 68.2569 35.8568C67.8772 36.2366 67.3621 36.4499 66.825 36.4499C66.288 36.4499 65.7729 36.2366 65.3931 35.8568C65.0134 35.477 64.8 34.962 64.8 34.4249V19.0633L48.0087 35.8586C47.6285 36.2388 47.1128 36.4525 46.575 36.4525C46.0373 36.4525 45.5216 36.2388 45.1413 35.8586C44.7611 35.4784 44.5475 34.9626 44.5475 34.4249C44.5475 33.8872 44.7611 33.3714 45.1413 32.9912L61.9367 16.1999H46.575C46.038 16.1999 45.5229 15.9866 45.1431 15.6068C44.7634 15.227 44.55 14.712 44.55 14.1749Z" fill="white"/>
</svg>
