<svg width="26" height="16" viewBox="0 0 26 16" fill="none" xmlns="http://www.w3.org/2000/svg">
<path d="M12.19 0.377876L0.308984 13.9555C0.110643 14.182 -2.53229e-06 14.483 -2.58702e-06 14.796C-2.64175e-06 15.109 0.110642 15.41 0.308984 15.6366L0.322409 15.6512C0.418561 15.7614 0.534297 15.8491 0.662579 15.9091C0.790861 15.9691 0.929006 16 1.06861 16C1.20821 16 1.34636 15.9691 1.47464 15.9091C1.60292 15.8491 1.71866 15.7614 1.81481 15.6512L13.0022 2.86536L24.1852 15.6512C24.2813 15.7614 24.3971 15.8491 24.5254 15.9091C24.6536 15.9691 24.7918 16 24.9314 16C25.071 16 25.2091 15.9691 25.3374 15.9091C25.4657 15.8491 25.5814 15.7614 25.6776 15.6512L25.691 15.6366C25.8894 15.41 26 15.109 26 14.796C26 14.483 25.8894 14.182 25.691 13.9555L13.81 0.377877C13.7055 0.258467 13.5798 0.163404 13.4406 0.0984496C13.3014 0.0334954 13.1515 2.29948e-06 13 2.27299e-06C12.8485 2.24651e-06 12.6986 0.0334953 12.5594 0.0984494C12.4202 0.163404 12.2945 0.258467 12.19 0.377876Z" fill="black"/>
</svg>
